<svg width="158" height="43" viewBox="0 0 158 43" fill="none" xmlns="http://www.w3.org/2000/svg">
<path d="M22.3422 21.7875C23.6372 20.691 23.4158 19.2292 22.7143 18.8309C22.5165 18.6358 22.2134 18.5033 21.8422 18.4729C21.8014 18.4693 21.7488 18.4684 21.6834 18.4684C20.9121 18.4684 19.668 19.7457 19.599 20.5844C19.501 21.7248 20.1671 22.0775 20.9802 22.8858C21.746 23.6466 22.8468 24.1523 24.1363 24.258C24.2887 24.2705 24.4575 24.2768 24.6408 24.2768C26.1962 24.2768 27.6463 23.7119 28.7316 22.7971C29.7679 21.9253 30.4621 20.7447 30.5682 19.462C30.5837 19.2713 30.5918 19.0717 30.5918 18.8658C30.5918 16.97 29.826 15.2639 28.5437 13.9893C27.2089 12.6645 25.3096 11.7846 23.1036 11.6038C22.8368 11.5814 22.5537 11.5707 22.2533 11.5707C19.6444 11.5707 17.2097 12.5222 15.383 14.06C13.6054 15.5566 12.4846 18.7915 12.2995 21.0266C12.2768 21.305 12.266 21.5905 12.266 21.8832C12.266 24.6187 13.2995 25.8888 15.1507 27.7274C18.3422 29.9849 21.7424 31.4376 22.8749 31.127C23.2579 31.1584 23.6562 31.1745 24.0709 31.1745C27.7316 31.1745 29.5283 30.2373 32.0973 28.0747C34.6155 25.9542 37.9286 22.6486 38.1917 19.462C38.1291 16.6701 38.1826 17.5294 38.1826 17.149C38.1826 13.574 36.7933 11.5519 34.3732 9.14765C31.9022 6.69327 28.4067 5.06596 24.364 4.73477C23.8686 4.69359 23.3541 4.67301 22.8232 4.67301C18.109 4.67301 13.7052 6.39609 10.3948 9.18256C7.13525 11.9279 4.9474 15.6945 4.60529 19.8343C4.56809 20.2882 4.54994 20.7483 4.54994 21.2119C4.54994 28.439 10.3512 36.7465 17.8903 37.3659C18.4992 37.416 22.8531 38.0722 23.5011 38.0722C29.267 38.0722 34.6563 35.9624 38.7071 32.552C40.3605 31.1601 41.7897 29.5534 42.9268 27.7874C43.2761 27.4383 43.5257 26.6631 43.6573 26.6613C43.8152 26.6586 43.8052 27.5162 43.601 28.1678C42.091 32.5162 41.0502 35.522 37.6572 37.9451C34.3115 40.3332 28.6399 42.1682 23.5011 42.6095C22.747 42.6095 21.9929 42.5781 21.2406 42.5164C8.63617 40.0844 0 37.5825 0 21.2119C0 20.6435 0.316697 17.9761 0.366607 17.3782C0.811255 11.9941 3.30946 9.22285 7.46284 5.72656C11.5663 2.27234 14.0926 0.315629 19.9048 0.315629C20.5419 0.315629 24.0991 0.162565 24.7379 0.214481C29.8731 0.636077 35.7779 3.34736 38.9921 6.54021C42.258 9.78408 42.7861 13.5238 42.7861 18.3449C42.7861 18.8211 42.7652 19.3152 42.7235 19.8254V19.8343C42.3578 24.266 40.0638 28.2591 36.6518 31.1306C33.2897 33.9609 28.0192 36.2623 23.2597 36.2623C22.7388 36.2623 22.2152 36.2399 21.6907 36.1969C17.4729 35.8505 13.2787 33.0631 10.6325 30.4351C7.93561 27.756 7.23961 23.6717 7.23961 19.6902C7.23961 19.2937 7.25685 18.8846 7.29133 18.4613C7.57899 14.982 9.78046 12.8525 12.4502 10.604C15.0718 8.39756 18.5455 7.03251 22.2533 7.03251C22.6508 7.03251 23.0564 7.05041 23.4675 7.08353H23.4766C26.776 7.35475 29.6653 8.718 31.7425 10.7812C34.2017 13.2249 35.4176 15.8681 35.13 19.351C34.9213 21.8779 33.5937 24.6294 31.6644 26.2532C29.7851 27.8357 27.2951 28.8141 24.6408 28.8141C24.3595 28.8141 24.07 28.8015 23.7715 28.7774H23.7624C21.3804 28.5822 18.7823 28.593 17.2742 27.0946C15.7143 25.5442 14.7632 22.4382 14.7632 20.136C14.795 18.7074 15.4747 16.7856 16.6117 15.6989C18.1208 14.2578 20.3586 13.8667 22.207 13.9535C23.4593 13.9535 25.0355 14.751 25.913 15.6229C29.3396 19.2838 24.3114 23.0719 22.3422 21.7875Z" fill="#21966C"/>
<path d="M62.5342 21.7079V20.7604C62.5342 18.2684 61.3496 17.0213 58.9805 17.0213C57.8629 17.0213 56.9846 17.4895 56.3498 18.4304C55.7799 19.2359 55.4938 20.2212 55.4938 21.3817C55.4938 22.5623 55.7687 23.5631 56.3163 24.3975C56.9533 25.3384 57.8406 25.8066 58.9805 25.8066C60.1427 25.8066 61.0412 25.4027 61.6782 24.5927C62.2482 23.8516 62.5342 22.8885 62.5342 21.7079ZM62.5342 28.0922H62.4024C61.2826 29.7476 59.7158 30.5753 57.6975 30.5753C56.6672 30.5753 55.6793 30.3468 54.7361 29.8897C53.2028 29.1263 52.0071 27.9413 51.1511 26.3303C50.3844 24.8479 50 23.2058 50 21.3973C50 18.9363 50.7465 16.7927 52.2373 14.9642C53.8153 13.0048 55.8223 12.024 58.2563 12.024C60.0332 12.024 61.4592 12.6564 62.5342 13.919C63.0818 12.8073 63.8596 12.2525 64.8677 12.2525C66.6445 12.2525 67.5341 13.5263 67.5341 16.0738V26.6875C67.5341 28.3208 67.4558 29.7254 67.3039 30.9015C66.9954 33.2316 65.9874 35.0157 64.2776 36.2584C62.6974 37.3901 60.6702 37.956 58.1915 37.956C55.7352 37.956 53.822 37.5698 52.4519 36.7976C51.0795 36.0231 50.3956 35.1244 50.3956 34.1014C50.3956 33.4268 50.6079 32.8721 51.0371 32.4371C51.464 32.0022 52.0183 31.7825 52.6977 31.7825C53.0933 31.7825 53.8711 32.0177 55.0334 32.486C56.1956 32.9542 57.3131 33.1872 58.3882 33.1872C59.7494 33.1872 60.7797 32.7855 61.4815 31.98C62.1833 31.1745 62.5342 30.096 62.5342 28.7468V28.0922ZM76.6464 26.7164C76.6464 29.2905 75.768 30.5753 74.0135 30.5753C72.2366 30.5753 71.3493 29.2905 71.3493 26.7164V16.0804C71.3493 13.5262 72.2366 12.2525 74.0135 12.2525C75.768 12.2525 76.6464 13.5262 76.6464 16.0804V26.7164ZM78.4881 14.8666C78.4881 14.1476 78.734 13.5329 79.2279 13.0203C79.7219 12.5077 80.3298 12.2525 81.054 12.2525C82.3257 12.2525 83.2354 13.1135 83.783 14.8333L86.6774 24.0113L89.5718 14.4738C90.0121 12.9937 90.8548 12.2525 92.1064 12.2525C92.8954 12.2525 93.5033 12.4988 93.9324 12.987C94.3593 13.4774 94.5739 14.1143 94.5739 14.8976C94.5739 15.3126 94.4309 15.8896 94.1448 16.6285L89.6724 28.1588C89.3215 29.0508 88.9706 29.6722 88.6197 30.0206C88.1369 30.4977 87.4686 30.7373 86.6126 30.7373C85.7342 30.7373 85.0436 30.4777 84.5407 29.954C84.1674 29.6056 83.7942 28.9532 83.4209 27.9946L78.7832 16.3023C78.5865 15.803 78.4881 15.3237 78.4881 14.8666ZM107.6 21.7079V20.7604C107.6 18.2684 106.415 17.0213 104.046 17.0213C102.929 17.0213 102.05 17.4895 101.415 18.4304C100.845 19.2359 100.559 20.2212 100.559 21.3817C100.559 22.5623 100.834 23.5631 101.382 24.3975C102.019 25.3384 102.906 25.8066 104.046 25.8066C105.208 25.8066 106.109 25.4027 106.744 24.5927C107.314 23.8516 107.6 22.8885 107.6 21.7079ZM107.6 28.0922H107.468C106.348 29.7476 104.781 30.5753 102.763 30.5753C101.733 30.5753 100.747 30.3468 99.8039 29.8897C98.2684 29.1263 97.0727 27.9413 96.2167 26.3303C95.45 24.8479 95.0656 23.2058 95.0656 21.3973C95.0656 18.9363 95.8121 16.7927 97.3029 14.9642C98.8831 13.0048 100.888 12.024 103.322 12.024C105.099 12.024 106.525 12.6564 107.6 13.919C108.147 12.8073 108.925 12.2525 109.936 12.2525C111.71 12.2525 112.6 13.5263 112.6 16.0738V26.6875C112.6 28.3208 112.521 29.7254 112.369 30.9015C112.061 33.2316 111.053 35.0157 109.343 36.2584C107.763 37.3901 105.736 37.956 103.257 37.956C100.801 37.956 98.8876 37.5698 97.5175 36.7976C96.1474 36.0231 95.4612 35.1244 95.4612 34.1014C95.4612 33.4268 95.6758 32.8721 96.1027 32.4371C96.5296 32.0022 97.0839 31.7825 97.7633 31.7825C98.1589 31.7825 98.9367 32.0177 100.099 32.486C101.261 32.9542 102.381 33.1872 103.454 33.1872C104.815 33.1872 105.845 32.7855 106.547 31.98C107.249 31.1745 107.6 30.096 107.6 28.7468V28.0922ZM121.712 26.7164C121.712 29.2905 120.834 30.5753 119.079 30.5753C117.302 30.5753 116.415 29.2905 116.415 26.7164V16.0804C116.415 13.5262 117.302 12.2525 119.079 12.2525C120.834 12.2525 121.712 13.5262 121.712 16.0804V26.7164ZM123.554 14.8666C123.554 14.1476 123.8 13.5329 124.294 13.0203C124.788 12.5077 125.395 12.2525 126.12 12.2525C127.391 12.2525 128.301 13.1135 128.849 14.8333L131.743 24.0113L134.64 14.4738C135.078 12.9937 135.923 12.2525 137.172 12.2525C137.961 12.2525 138.569 12.4988 138.998 12.987C139.425 13.4774 139.639 14.1143 139.639 14.8976C139.639 15.3126 139.496 15.8896 139.21 16.6285L134.738 28.1588C134.387 29.0508 134.036 29.6722 133.685 30.0206C133.202 30.4977 132.534 30.7373 131.678 30.7373C130.802 30.7373 130.111 30.4777 129.606 29.954C129.233 29.6056 128.86 28.9532 128.487 27.9946L123.849 16.3023C123.652 15.803 123.554 15.3237 123.554 14.8666ZM145.625 22.8663C145.735 23.8915 146.164 24.6748 146.908 25.2185C147.654 25.7622 148.564 26.0351 149.639 26.0351C150.538 26.0351 151.624 25.7467 152.896 25.1697C154.167 24.5927 154.956 24.3043 155.265 24.3043C156.668 24.3043 157.37 24.99 157.37 26.3613C157.37 26.885 157.171 27.4065 156.778 27.9302C156.076 28.8866 154.956 29.6167 153.421 30.1182C152.129 30.5531 150.779 30.7706 149.375 30.7706C146.745 30.7706 144.552 29.8719 142.798 28.0767C141.043 26.2815 140.165 24.0646 140.165 21.4306C140.165 18.8187 141.003 16.5864 142.681 14.7356C144.36 12.8849 146.503 11.9596 149.112 11.9596C150.406 11.9596 151.579 12.1993 152.632 12.6786C154.145 13.3754 155.386 14.4094 156.349 15.7808C157.314 17.1522 157.797 18.6434 157.797 20.2545C157.797 21.1266 157.48 21.7901 156.843 22.2472C156.295 22.6599 155.571 22.8663 154.673 22.8663H145.625ZM145.56 19.4046H152.567C152.5 18.4903 152.145 17.7403 151.497 17.1522C150.851 16.5642 150.066 16.2712 149.145 16.2712C148.202 16.2712 147.413 16.5597 146.776 17.1367C146.141 17.7136 145.735 18.4681 145.56 19.4046Z" fill="#21966C"/>
<path d="M76.2199 3.7229C75.6052 3.09934 74.8676 3.16591 73.9624 3.16591C73.055 3.16591 72.0783 3.32569 71.439 3.94925C70.7998 4.5728 70.6836 5.48484 70.6836 6.38578C70.6836 7.30891 70.9988 8.07671 71.6246 8.68917C72.2526 9.29941 73.0327 9.60565 73.9624 9.60565C74.8676 9.60565 75.7058 8.91551 76.3227 8.29417C76.9373 7.67061 77.1698 7.28672 77.1698 6.38578C77.1698 5.48484 76.8367 4.34646 76.2199 3.7229Z" fill="#21966C"/>
<path d="M119.992 4.81287C120.654 5.01036 120.877 5.54071 121.211 6.16649C121.541 6.79227 121.787 7.52456 121.586 8.19472C121.385 8.86488 120.788 9.27984 120.158 9.61049C119.512 9.95 118.859 10.0144 118.2 9.80576C117.543 9.59717 117.042 9.17111 116.7 8.5298C116.369 7.90402 116.544 7.07187 116.754 6.41947C116.964 5.76484 117.149 5.46526 117.78 5.13462C118.41 4.80398 119.329 4.61537 119.992 4.81287Z" fill="#21966C"/>
</svg>
